<svg width="20" height="21" viewBox="0 0 20 21" fill="none" xmlns="http://www.w3.org/2000/svg">
<path d="M18.9 0.928711H1.1C0.808262 0.928711 0.528473 1.0446 0.322183 1.25087C0.115893 1.45715 0 1.73692 0 2.02863V19.8274C0 20.1191 0.115893 20.3989 0.322183 20.6051C0.528473 20.8114 0.808262 20.9273 1.1 20.9273H10.68V13.1778H8.08V10.1781H10.68V7.92822C10.6261 7.40001 10.6885 6.86642 10.8627 6.36487C11.0369 5.86331 11.3188 5.40594 11.6885 5.02483C12.0582 4.64373 12.5068 4.34811 13.0028 4.15872C13.4989 3.96933 14.0304 3.89075 14.56 3.9285C15.3383 3.92371 16.1163 3.96377 16.89 4.04849V6.7483H15.3C14.04 6.7483 13.8 7.34826 13.8 8.2182V10.1481H16.8L16.41 13.1479H13.8V20.9273H18.9C19.0445 20.9273 19.1875 20.8989 19.321 20.8436C19.4544 20.7883 19.5757 20.7073 19.6778 20.6051C19.78 20.503 19.861 20.3818 19.9163 20.2483C19.9715 20.1149 20 19.9718 20 19.8274V2.02863C20 1.88419 19.9715 1.74116 19.9163 1.60771C19.861 1.47426 19.78 1.35301 19.6778 1.25087C19.5757 1.14873 19.4544 1.06771 19.321 1.01244C19.1875 0.957161 19.0445 0.928711 18.9 0.928711Z" fill="#E5C27A"/>
</svg>
