<svg width="20" height="20" viewBox="0 0 20 20" fill="none" xmlns="http://www.w3.org/2000/svg">
<path d="M11.0286 0.00123031C11.7583 -0.00156972 12.488 0.00576388 13.2176 0.0232288L13.4116 0.0302283C13.6356 0.0382277 13.8566 0.048227 14.1236 0.0602262C15.1876 0.110223 15.9136 0.278211 16.5506 0.525194C17.2106 0.779176 17.7666 1.12315 18.3226 1.67911C18.831 2.17868 19.2244 2.78298 19.4756 3.44999C19.7226 4.08694 19.8906 4.81389 19.9406 5.87782C19.9526 6.1438 19.9626 6.36578 19.9706 6.58977L19.9766 6.78375C19.9943 7.51289 20.002 8.24225 19.9996 8.9716L20.0006 9.71755V11.0275C20.003 11.7571 19.9954 12.4868 19.9776 13.2163L19.9716 13.4103C19.9636 13.6343 19.9536 13.8553 19.9416 14.1222C19.8916 15.1862 19.7216 15.9121 19.4756 16.5491C19.2252 17.2168 18.8317 17.8216 18.3226 18.3209C17.8225 18.8292 17.2179 19.2226 16.5506 19.4739C15.9136 19.7208 15.1876 19.8888 14.1236 19.9388C13.8566 19.9508 13.6356 19.9608 13.4116 19.9688L13.2176 19.9748C12.4881 19.9926 11.7583 20.0003 11.0286 19.9978L10.2826 19.9988H8.97358C8.24384 20.0013 7.5141 19.9936 6.78458 19.9758L6.59058 19.9698C6.35319 19.9612 6.11585 19.9512 5.87858 19.9398C4.81458 19.8898 4.08858 19.7198 3.45058 19.4739C2.78326 19.2232 2.17881 18.8297 1.67958 18.3209C1.17062 17.8213 0.776801 17.2166 0.525577 16.5491C0.278577 15.9121 0.110577 15.1862 0.0605769 14.1222C0.0494399 13.885 0.0394398 13.6476 0.030577 13.4103L0.0255771 13.2163C0.00714068 12.4868 -0.00119355 11.7571 0.000577001 11.0275V8.9716C-0.00221397 8.24225 0.00512015 7.5129 0.0225771 6.78375L0.029577 6.58977C0.037577 6.36578 0.047577 6.1438 0.059577 5.87782C0.109577 4.81289 0.277577 4.08794 0.524577 3.44999C0.77595 2.78265 1.17054 2.17852 1.68058 1.68011C2.17947 1.1709 2.78354 0.776749 3.45058 0.525194C4.08858 0.278211 4.81358 0.110223 5.87858 0.0602262L6.59058 0.0302283L6.78458 0.0252288C7.51376 0.0068029 8.24316 -0.00153074 8.97258 0.000230452L11.0286 0.00123031ZM10.0006 5.00088C9.33808 4.99151 8.68033 5.11389 8.06555 5.36092C7.45077 5.60795 6.89122 5.97469 6.41942 6.43983C5.94762 6.90497 5.57298 7.45924 5.31726 8.07043C5.06155 8.68161 4.92987 9.33751 4.92987 10C4.92987 10.6625 5.06155 11.3184 5.31726 11.9296C5.57298 12.5408 5.94762 13.0951 6.41942 13.5602C6.89122 14.0254 7.45077 14.3921 8.06555 14.6391C8.68033 14.8862 9.33808 15.0085 10.0006 14.9992C11.3267 14.9992 12.5984 14.4724 13.5361 13.5348C14.4738 12.5972 15.0006 11.3255 15.0006 9.99953C15.0006 8.67354 14.4738 7.40186 13.5361 6.46424C12.5984 5.52663 11.3267 5.00088 10.0006 5.00088ZM10.0006 7.00074C10.3991 6.9934 10.7951 7.06553 11.1654 7.21293C11.5357 7.36033 11.8729 7.58004 12.1574 7.85922C12.4418 8.1384 12.6678 8.47147 12.822 8.83895C12.9763 9.20643 13.0558 9.60097 13.0558 9.99952C13.0559 10.3981 12.9766 10.7926 12.8224 11.1602C12.6683 11.5277 12.4424 11.8608 12.1581 12.1401C11.8737 12.4194 11.5366 12.6392 11.1663 12.7867C10.796 12.9343 10.4001 13.0065 10.0016 12.9993C9.20593 12.9993 8.44287 12.6833 7.88026 12.1207C7.31765 11.5581 7.00158 10.7951 7.00158 9.99953C7.00158 9.20393 7.31765 8.44092 7.88026 7.87836C8.44287 7.31579 9.20593 6.99974 10.0016 6.99974L10.0006 7.00074ZM15.2506 3.50098C14.928 3.5139 14.6229 3.65112 14.3992 3.88393C14.1755 4.11673 14.0506 4.42705 14.0506 4.7499C14.0506 5.07274 14.1755 5.38306 14.3992 5.61586C14.6229 5.84867 14.928 5.9859 15.2506 5.99881C15.5821 5.99881 15.9 5.86712 16.1345 5.63272C16.3689 5.39831 16.5006 5.08039 16.5006 4.7489C16.5006 4.4174 16.3689 4.09948 16.1345 3.86508C15.9 3.63067 15.5821 3.49898 15.2506 3.49898V3.50098Z" fill="#E5C27A"/>
</svg>
