<svg width="1920" height="550" viewBox="0 0 1920 550" fill="none" xmlns="http://www.w3.org/2000/svg">
<rect width="1920" height="550" fill="#002B00"/>
<mask id="mask0_303_5249" style="mask-type:alpha" maskUnits="userSpaceOnUse" x="0" y="0" width="1920" height="550">
<rect width="1920" height="550" fill="#D4D0C5"/>
</mask>
<g mask="url(#mask0_303_5249)">
<path d="M1524.84 295.215L1521.84 315.034L1518.83 334.852L1515.82 354.671L1512.82 374.515L1509.81 394.359L1506.8 414.203L1503.8 434.048L1500.79 453.917L1497.78 473.787L1494.75 493.656L1491.74 513.551L1488.74 533.471L1485.7 553.366L1482.7 573.287L1479.66 593.233L1476.63 613.229L1465.14 611.654L1447.26 609.164L1429.38 606.572L1411.52 603.93L1393.67 601.236L1375.82 598.467L1353.41 586.271L1331.12 573.998L1308.9 561.624L1286.84 549.149L1264.86 536.571L1243.02 523.892L1221.28 511.137L1199.65 498.255L1202.71 495.587L1207.66 487.863L1207.95 487.38L1214.9 488.168L1218.59 486.694L1221.33 483.239L1222.59 479.402L1222.37 475.235L1220.08 471.703L1215.75 468.807L1214.18 462.836L1215.4 453.739L1217.32 449.089L1219.92 448.861L1222.77 447.158L1225.83 443.957L1228.36 440.298L1230.38 436.157L1231.79 430.719L1232.54 423.986L1238.68 416.668L1244.06 412.476L1253.4 407.851L1255.6 406.352L1255.95 404.853L1256 404.675L1254.81 402.236L1248.55 396.544L1246.19 392.86L1246.51 389.964L1246.43 389.887L1246.08 386.991L1240.89 374.134L1239.69 367.375L1240.73 362.751L1240.81 362.395L1246 342.907L1244.75 335.538L1244.96 331.575L1246.8 327.026L1247.2 324.028L1246.48 321.233L1247.17 316.533L1248.26 310.765L1246.93 306.649L1246.88 304.921L1248.95 301.211L1251.59 299.611L1255.47 298.899L1259.7 299.229L1264.28 300.576L1267.39 303.041L1269.09 306.598L1271.06 308.631L1273.35 309.164L1276.92 307.182L1280.78 302.253L1281.73 302.05L1286.84 278.217L1291.44 256.518L1305.97 259.313L1320.5 262.031L1335.03 264.699L1349.58 267.342L1364.14 269.933L1378.72 272.474L1393.27 274.964L1407.85 277.403L1422.46 279.792L1437.07 282.13L1451.67 284.442L1466.28 286.678L1480.92 288.888L1495.55 291.048L1510.18 293.157L1524.84 295.215Z" fill="#002B00" stroke="#506650"/>
<path d="M1867.81 159.457L1867.09 170.027L1866.4 180.597L1865.68 191.167L1864.99 201.737L1864.3 212.307L1863.61 222.877L1862.89 233.447L1862.2 244.017L1861.51 254.587L1860.79 265.157L1860.1 275.701L1859.4 286.271L1858.69 296.841L1857.99 307.411L1857.3 317.981L1856.61 328.551L1844.9 327.789L1833.22 327.027L1821.54 326.188L1809.84 325.35L1791.98 324.003L1774.13 322.58L1756.25 321.081L1738.42 319.531L1720.57 317.879L1702.74 316.177L1684.89 314.398L1667.09 312.544L1649.26 310.638L1631.46 308.631L1613.66 306.573L1595.89 304.438L1578.11 302.253L1560.34 299.966L1542.59 297.629L1524.85 295.215L1526.95 281.24L1529.08 267.265L1531.18 253.291L1533.31 239.316L1535.41 225.341L1537.54 211.367L1539.64 197.392L1541.77 183.442L1543.87 169.468L1546 155.493L1548.1 141.518L1550.23 127.543L1552.33 113.569L1554.46 99.594L1556.56 85.6193L1558.69 71.6191L1572.63 73.5248L1586.57 75.3796L1600.52 77.1836L1614.49 78.9622L1628.45 80.6646L1642.42 82.3416L1656.39 83.9677L1670.39 85.543L1684.38 87.0675L1698.38 88.5667L1712.37 90.015L1726.37 91.387L1740.39 92.7337L1754.41 94.0549L1768.41 95.2999L1782.43 96.5195L1793.58 97.4343L1804.75 98.3236L1815.9 99.2129L1827.05 100.051L1838.2 100.864L1849.37 101.652L1860.52 102.389L1871.7 103.126L1871.22 110.164L1870.71 117.202L1870.23 124.266L1869.76 131.304L1869.25 138.342L1868.77 145.38L1868.29 152.419L1867.81 159.457Z" fill="#002B00" stroke="#506650"/>
<path d="M1504.06 -136.96L1502.55 -128.22L1501 -119.479L1499.49 -110.764L1497.97 -102.023L1496.43 -93.2827L1494.91 -84.5675L1493.39 -75.827L1491.85 -67.0865L1490.33 -58.3713L1488.82 -49.6561L1487.27 -40.9409L1485.76 -32.2258L1484.24 -23.4853L1482.72 -14.7701L1481.21 -6.08032L1479.66 2.66025L1471.52 1.33899L1463.38 0.0177296L1455.24 -1.32895L1447.1 -2.6756L1438.95 -4.07306L1430.81 -5.44513L1422.7 -6.86801L1414.56 -8.29092L1406.44 -9.71378L1398.33 -11.162L1390.21 -12.6358L1382.09 -14.1349L1373.98 -15.634L1365.86 -17.1331L1357.75 -18.683L1349.66 -20.2329L1333.56 -23.3582L1317.47 -26.5343L1301.39 -29.7866L1285.35 -33.0897L1269.31 -36.4691L1253.26 -39.8992L1237.27 -43.4056L1221.25 -46.9628L1224.29 -59.2606L1227.29 -71.5583L1230.3 -83.8561L1233.31 -96.1539L1236.34 -108.477L1239.35 -120.775L1242.38 -133.098L1245.68 -146.641L1245.76 -146.92L1250.42 -154.67L1251.99 -158.583L1251.85 -161.047L1252.86 -163.131L1254.99 -164.91L1255.5 -167.247L1254.43 -170.144L1251.69 -172.532L1247.28 -174.387L1245.63 -177.868L1246.72 -183.026L1252.09 -190.09L1261.72 -199.11L1267.42 -205.767L1269.15 -210.01L1275.83 -219.259L1287.4 -233.487L1292.8 -243.066L1292.08 -247.945L1289.24 -253.103L1284.21 -258.515L1281.15 -264.206L1280.61 -266.874L1280 -270.152L1280.22 -274.116L1281.79 -276.072L1281.89 -280.061L1280.51 -286.083L1280.27 -290.047L1280.85 -291.267L1281.28 -291.724L1283.44 -300.642L1285.59 -309.535L1287.77 -318.454L1289.93 -327.372L1292.08 -336.291L1294.26 -345.209L1296.42 -354.153L1298.6 -363.097L1300.78 -372.015L1302.94 -380.959L1305.12 -389.903L1307.3 -398.872L1309.46 -407.816L1311.64 -416.785L1313.82 -425.754L1315.95 -434.673L1328.37 -431.903L1344.84 -428.295L1354.18 -426.288L1350.94 -412.466L1347.69 -398.618L1344.42 -384.77L1341.17 -370.948L1344.1 -364.443L1346.41 -360.327L1347.56 -356.186L1349.71 -351.638L1350.01 -350.138L1350.11 -345.717L1348.62 -342.872L1349.55 -339.467L1348.92 -337.993L1347.51 -337.485L1347.19 -337.282L1347.16 -336.977L1347.48 -336.367L1351.12 -332.53L1354.48 -327.55L1359.27 -323.586L1360.6 -321.579L1365.92 -311.898L1368.47 -305.927L1371.56 -301.328L1372.54 -296.577L1375.76 -291.953L1376.35 -289.818L1376.56 -289.336L1377.07 -289.183L1379.78 -289.59L1380.39 -289.209L1381.3 -287.455L1381.06 -285.118L1381.78 -283.974L1383.21 -283.11L1384.94 -282.602L1390.74 -282.628L1391.94 -282.399L1392.42 -281.815L1392.42 -280.544L1391.91 -278.537L1390.77 -275.818L1388.48 -273.303L1388.19 -270.635L1385.55 -264.765L1383.43 -260.954L1382.47 -256.99L1380.39 -255.009L1380.68 -252.137L1379.19 -248.097L1379.51 -246.929L1381.08 -244.616L1380.79 -239.382L1380.23 -238.518L1376.24 -237.248L1374.72 -236.155L1373.87 -234.402L1374.27 -228.736L1372.12 -226.094L1371.37 -223.578L1371.58 -222.867L1374.59 -220.859L1377.97 -217.048L1379.11 -216.159L1380.02 -216.083L1381.94 -216.769L1384.25 -218.446L1388.53 -219.767L1393.99 -223.324L1394.47 -224.518L1394.97 -225.128L1395.56 -224.976L1396.86 -224.112L1399.18 -220.885L1401.33 -218.928L1401.68 -218.522L1401.76 -217.734L1401.09 -215.092L1402.02 -212.729L1401.73 -209.222L1402.42 -205.513L1402.58 -201.168L1405.22 -195.12L1406.47 -190.928L1408.33 -188.768L1409.26 -186.481L1409.77 -183.864L1409.74 -181.832L1407.72 -178.503L1407.77 -176.953L1408.62 -175.098L1411.76 -170.677L1412.45 -170.245L1416.13 -169.991L1417.96 -169L1419.53 -166.815L1420.94 -163.639L1421.66 -160.616L1421.34 -157.211L1422.62 -153.145L1422.25 -149.817L1423.2 -148.165L1425.3 -145.751L1427.43 -144.151L1428.36 -143.897L1429.14 -144.278L1429.7 -146.056L1430.95 -147.276L1434.3 -148.673L1437.12 -148.14L1447.5 -144.634L1448.27 -144.608L1448.85 -145.065L1451.25 -147.733L1452.92 -148.648L1455.24 -148.623L1461.68 -146.768L1469.39 -145.904L1473.2 -144.379L1479.18 -144.532L1485.7 -142.601L1486.66 -142.957L1486.98 -143.516L1486.58 -144.735L1486.87 -146.971L1488.68 -149.385L1489.56 -151.545L1491.13 -152.586L1493.07 -152.993L1494.51 -152.663L1495.71 -151.24L1496.96 -148.978L1498.85 -143.084L1500.02 -140.898L1501.56 -138.891L1504.06 -136.96Z" fill="#002B00" stroke="#506650"/>
<path d="M2207.19 337.088L2196.22 337.24L2185.26 337.342L2174.3 337.443L2163.34 337.52L2152.37 337.545L2141.41 337.57L2130.45 337.545L2119.49 337.52L2108.53 337.443L2097.56 337.342L2086.6 337.215L2075.64 337.088L2064.68 336.91L2053.74 336.706L2042.78 336.478L2031.82 336.224L2020.86 335.944L2009.89 335.639L1998.93 335.309L1987.97 334.953L1977.03 334.572L1966.07 334.14L1955.11 333.708L1944.17 333.251L1933.21 332.743L1922.28 332.235L1911.31 331.676L1900.38 331.117L1889.42 330.507L1878.48 329.897L1867.54 329.236L1856.61 328.55L1857.3 317.98L1857.99 307.41L1858.68 296.84L1859.4 286.27L1860.09 275.7L1860.79 265.156L1861.5 254.586L1862.2 244.016L1862.89 233.446L1863.61 222.876L1864.3 212.306L1864.99 201.736L1865.68 191.166L1866.4 180.596L1867.09 170.026L1867.81 159.456L1877.31 160.066L1886.83 160.625L1896.33 161.184L1905.86 161.717L1915.38 162.226L1924.91 162.708L1934.44 163.166L1943.96 163.623L1953.46 164.055L1962.98 164.462L1972.51 164.843L1982.06 165.198L1991.59 165.529L2001.11 165.859L2010.64 166.164L2020.16 166.443L2029.69 166.697L2039.21 166.926L2048.74 167.129L2058.29 167.333L2067.82 167.511L2077.34 167.663L2086.89 167.79L2096.42 167.892L2105.95 167.993L2115.5 168.07L2125.02 168.095L2134.55 168.12L2144.1 168.146L2153.63 168.12L2163.15 168.095L2171.35 168.019L2181.91 175.235L2184.68 175.286L2187.92 174.117L2190.4 175.743L2192.13 180.24L2191.91 182.527L2189.76 182.654L2187.1 185.373L2183.93 190.734L2184.78 195.714L2189.68 200.339L2192.95 204.988L2194.63 209.714L2197.87 213.348L2205.08 217.184L2205.03 219.344L2205.16 226.713L2205.3 234.081L2205.43 241.424L2205.56 248.793L2205.7 256.136L2205.83 263.504L2205.96 270.847L2206.1 278.216L2206.23 285.584L2206.39 292.928L2206.52 300.296L2206.65 307.639L2206.79 315.008L2206.92 322.376L2207.05 329.719L2207.19 337.088Z" fill="#002B00" stroke="#506650"/>
<path d="M2120.55 26.1912L2121.86 26.4961L2124.78 31.5016L2125.95 40.42L2128.62 47.636L2132.74 53.0989L2134.81 57.1134L2134.84 59.6543L2135.83 62.373L2137.79 65.2696L2138.59 70.1989L2138.19 77.1608L2139.02 80.8451L2141.12 81.3025L2142.05 82.2934L2141.76 83.7925L2142.45 84.9359L2144.15 85.6473L2144.63 87.6546L2143.89 90.9323L2144.5 92.9904L2146.47 93.8289L2146.84 95.455L2145.62 97.8435L2145.8 99.7237L2147.43 101.096L2148.52 107.168L2149.1 117.942L2148.92 124.268L2147.99 126.098L2149.48 129.985L2152.24 134.178L2153.39 135.931L2155.89 141.826L2156.95 147.695L2159.43 151.481L2163.34 153.209L2165.97 156.944L2167.33 162.712L2170.63 167.514L2171.35 168.022L2163.15 168.098L2153.63 168.124L2144.1 168.149L2134.55 168.124L2125.02 168.098L2115.5 168.073L2105.95 167.997L2096.42 167.895L2086.89 167.793L2077.34 167.666L2067.82 167.514L2058.29 167.336L2048.74 167.133L2039.21 166.929L2029.69 166.701L2020.16 166.447L2010.64 166.167L2001.11 165.862L1991.59 165.532L1982.06 165.202L1972.51 164.846L1962.98 164.465L1953.46 164.058L1943.96 163.626L1934.44 163.169L1924.91 162.712L1915.38 162.229L1905.86 161.721L1896.33 161.187L1886.84 160.628L1877.31 160.069L1867.81 159.459L1868.29 152.421L1868.77 145.383L1869.25 138.345L1869.75 131.307L1870.23 124.268L1870.71 117.205L1871.22 110.167L1871.7 103.128L1860.52 102.392L1849.37 101.655L1838.2 100.867L1827.05 100.054L1815.9 99.2155L1804.75 98.3262L1793.58 97.4369L1782.43 96.5222L1783.71 82.4204L1784.98 68.344L1786.23 54.2423L1787.51 40.1659L1788.76 26.0641L1790.04 11.9623L1791.31 -2.13942L1792.57 -16.2412L1807.6 -14.9962L1822.61 -13.8274L1837.61 -12.684L1852.64 -11.6169L1867.68 -10.5751L1882.71 -9.60956L1897.74 -8.69485L1912.78 -7.83097L1927.84 -7.01791L1942.87 -6.28104L1957.93 -5.595L1972.99 -4.93439L1988.02 -4.35L2003.08 -3.8164L2018.14 -3.35907L2035.36 -2.8509L2048.13 5.88967L2055.84 8.68463L2059.57 6.27082L2067.58 5.00039L2079.87 4.84794L2087.59 6.11838L2090.81 8.83708L2097.09 11.9115L2106.45 15.3163L2112.07 18.9751L2113.9 22.888L2117.17 25.4035L2120.55 26.1912Z" fill="#002B00" stroke="#506650"/>
<path d="M1807.6 353.502L1805.6 353.375L1804.25 369.205L1802.89 385.06L1801.53 400.889L1800.18 416.719L1798.82 432.574L1797.44 448.429L1796.08 464.284L1794.72 480.139L1793.34 495.994L1791.98 511.874L1790.62 527.754L1789.24 543.635L1787.88 559.515L1786.5 575.421L1785.14 591.327L1783.76 607.233L1772.4 606.394L1761.04 605.505L1749.68 604.59L1738.34 603.675L1726.98 602.71L1715.62 601.719L1704.28 600.703L1692.95 599.661L1681.59 598.594L1670.25 597.501L1658.92 596.383L1647.58 595.24L1636.25 594.046L1624.94 592.851L1613.61 591.632L1602.3 590.361L1601.98 590.361L1605.86 601.16L1611.61 604.743L1611.24 604.59L1600.14 603.294L1589.05 601.973L1577.95 600.601L1566.88 599.229L1555.79 597.831L1544.72 596.383L1533.63 594.935L1522.58 593.461L1521.65 599.788L1520.72 606.115L1519.79 612.467L1518.86 618.794L1500.93 616.481L1483.05 614.118L1476.63 613.229L1479.67 593.232L1482.7 573.287L1485.71 553.366L1488.74 533.471L1491.75 513.551L1494.75 493.656L1497.79 473.787L1500.79 453.917L1503.8 434.047L1506.81 414.203L1509.81 394.359L1512.82 374.515L1515.83 354.671L1518.83 334.852L1521.84 315.034L1524.85 295.215L1542.59 297.629L1560.34 299.966L1578.11 302.253L1595.89 304.438L1613.66 306.572L1631.46 308.631L1649.26 310.638L1667.09 312.544L1684.89 314.398L1702.74 316.177L1720.57 317.879L1738.42 319.531L1756.25 321.081L1774.13 322.58L1791.98 324.003L1809.84 325.349L1809.28 332.388L1808.72 339.426L1808.16 346.464L1807.6 353.502Z" fill="#002B00" stroke="#506650"/>
<path d="M1291.45 256.519L1286.85 278.218L1281.74 302.051L1280.78 302.254L1276.92 307.184L1273.36 309.166L1271.07 308.632L1269.1 306.599L1267.4 303.042L1264.28 300.577L1259.71 299.231L1255.48 298.9L1251.59 299.612L1248.96 301.213L1246.88 304.922L1246.93 306.65L1248.26 310.766L1247.17 316.534L1246.48 321.235L1247.2 324.03L1246.8 327.028L1244.97 331.576L1244.75 335.54L1246 342.908L1240.81 362.397L1240.73 362.752L1230.36 348.447L1220.73 335.032L1211.17 321.616L1201.7 308.175L1192.31 294.708L1182.94 281.242L1173.68 267.75L1164.51 254.258L1157.83 244.78L1151.2 235.303L1144.6 225.8L1138.06 216.297L1131.51 206.794L1125.05 197.291L1118.58 187.763L1112.17 178.235L1103.84 166.725L1095.59 155.215L1087.37 143.679L1079.2 132.144L1071.11 120.583L1063.05 109.022L1055.07 97.4356L1047.14 85.8239L1050.04 75.6096L1052.91 65.3953L1055.81 55.1557L1058.71 44.9414L1061.59 34.7272L1064.49 24.4875L1067.39 14.2732L1070.26 4.03355L1073.16 -6.18073L1076.06 -16.4204L1078.96 -26.6601L1081.86 -36.8743L1084.76 -47.114L1087.64 -57.3537L1090.54 -67.5933L1093.44 -77.833L1109.37 -73.7422L1125.31 -69.7277L1141.25 -65.7893L1157.21 -61.9018L1173.21 -58.0651L1189.22 -54.3046L1205.24 -50.595L1221.26 -46.9616L1237.28 -43.4043L1253.27 -39.8979L1269.31 -36.4678L1285.36 -33.0884L1301.4 -29.7853L1317.47 -26.533L1333.57 -23.3569L1349.66 -20.2317L1347.83 -11.5673L1346.02 -2.90299L1344.18 5.73592L1342.37 14.4003L1340.57 23.0646L1338.73 31.7035L1336.92 40.3679L1335.08 49.0068L1333.27 57.6711L1331.47 66.31L1329.63 74.9744L1327.82 83.6133L1326.01 92.2523L1324.18 100.917L1322.37 109.556L1320.56 118.194L1318.72 126.859L1316.91 135.498L1315.1 144.137L1313.27 152.776L1311.46 161.44L1309.65 170.079L1307.81 178.718L1306 187.357L1304.19 195.996L1302.36 204.66L1300.55 213.299L1298.74 221.938L1296.93 230.577L1295.09 239.241L1293.28 247.88L1291.45 256.519Z" fill="#002B00" stroke="#506650"/>
<path d="M2207.64 365.318L2208.84 373.17L2210.03 381.021L2211.23 388.872L2212.45 396.723L2213.65 404.575L2214.88 412.426L2216.1 420.277L2217.32 428.128L2217.3 434.277L2217.27 440.426L2217.24 446.575L2217.22 452.724L2217.19 458.873L2217.16 465.022L2217.14 471.171L2217.11 477.32L2217.08 483.468L2217.03 489.643L2217 495.792L2216.98 501.94L2216.95 508.089L2216.92 514.264L2216.9 520.413L2216.87 526.561L2205.64 523.843L2202.82 522.064L2197.66 520.057L2193 515.839L2183.85 510.656L2180.39 509.411L2179.3 509.563L2177.44 512.18L2172.62 514.264L2169.99 514.365L2165.2 513.628L2164.3 512.968L2163.6 511.392L2161.69 510.325L2160.28 511.164L2153.36 513.374L2152.32 514.924L2148.41 515.001L2144.53 513.883L2134.73 517.338L2131.36 520.031L2127.84 520.972L2126.01 523.589L2124.94 523.207L2121.27 519.955L2117.49 518.964L2112.36 515.712L2112.2 512.866L2111.64 512.51L2110.71 512.18L2109.56 512.434L2107.3 514.848L2106 515.458L2104.7 515.356L2099.72 513.679L2097.64 510.757L2096.61 509.843L2095.46 509.665L2093.31 510.503L2092.06 513.705L2091.1 514.543L2089 515.077L2089.1 516.678L2087.19 521.073L2086.18 521.937L2084.87 521.759L2083.54 520.667L2082.56 519.091L2082.16 517.745L2082.96 514.238L2082.53 513.069L2081.55 512.688L2079.07 514.314L2076.92 514.213L2074.15 515.814L2072.42 516.296L2070.85 515.864L2068.35 513.146L2063.93 511.367L2062.28 508.191L2061.51 507.276L2060.58 507.022L2059.62 507.098L2058.03 508.089L2052.84 512.129L2050.5 513.4L2048.47 513.628L2046.58 513.171L2045.39 512.104L2045.23 507.886L2044.14 506.59L2039.48 503.872L2038.55 501.356L2038.18 497.901L2032.48 498.307L2025.49 497.799L2022.24 500.746L2020.59 501.28L2018.62 500.619L2013.09 496.351L2007.07 497.011L2003.69 496.452L1995.42 493.149L1988.87 492.666L1986.16 492.031L1984.75 491.294L1984.27 486.594L1981.82 482.554L1981 481.436L1976.69 478.514L1975.97 478.387L1975.46 478.996L1974.35 482.071L1973.02 482.173L1967.93 481.105L1963.2 481.842L1960.64 480.216L1952.05 472.644L1948.54 470.637L1945.69 469.926L1945.98 463.167L1946.3 456.383L1946.6 449.624L1946.89 442.865L1947.21 436.107L1947.5 429.348L1947.79 422.589L1948.11 415.831L1948.4 409.072L1948.7 402.313L1949.02 395.555L1949.31 388.796L1949.63 382.037L1949.92 375.304L1950.21 368.545L1950.53 361.787L1941.59 361.405L1932.65 360.999L1923.71 360.567L1914.77 360.135L1905.83 359.678L1896.89 359.195L1887.95 358.712L1879.01 358.204L1870.1 357.67L1861.16 357.137L1852.22 356.578L1843.31 355.993L1834.37 355.384L1825.45 354.774L1816.51 354.139L1807.6 353.503L1808.16 346.465L1808.72 339.427L1809.27 332.389L1809.83 325.351L1821.54 326.189L1833.22 327.028L1844.9 327.79L1856.61 328.552L1867.54 329.238L1878.48 329.899L1889.42 330.509L1900.38 331.118L1911.31 331.677L1922.28 332.236L1933.21 332.745L1944.17 333.253L1955.11 333.71L1966.07 334.142L1977.03 334.574L1987.97 334.955L1998.93 335.311L2009.89 335.641L2020.86 335.946L2031.82 336.225L2042.78 336.48L2053.74 336.708L2064.68 336.912L2075.64 337.089L2086.6 337.216L2097.56 337.343L2108.53 337.445L2119.49 337.521L2130.45 337.547L2141.41 337.572L2152.38 337.547L2163.34 337.521L2174.3 337.445L2185.26 337.343L2196.22 337.242L2207.19 337.089L2207.29 344.153L2207.4 351.217L2207.51 358.255L2207.64 365.318Z" fill="#002B00" stroke="#506650"/>
<path d="M2118.48 -168.595L2117.01 -162.954L2116 -160.489L2113.98 -157.974L2107.62 -152.536L2106.05 -150.656L2106.26 -148.954L2107.51 -146.743L2110.71 -141.636L2112.44 -139.553L2119.41 -136.097L2122.57 -131.854L2122.49 -119.073L2122.44 -106.318L2122.36 -93.563L2122.31 -80.8332L2122.23 -68.0781L2122.18 -55.3484L2122.1 -42.6187L2122.04 -29.889L2115.76 -29.7111L2116.51 -26.1539L2118.18 -22.6729L2118.48 -20.6657L2118.13 -19.0141L2116.93 -17.5658L2117.2 -15.2536L2117.55 -14.6438L2120.37 -13.1447L2121.32 -11.1374L2121.59 -8.85066L2121.54 -7.09746L2119.81 -3.94678L2119.28 0.245635L2117.09 6.49617L2114.73 10.2821L2114.25 12.2385L2114.46 13.7884L2118.08 17.8284L2118.26 19.4291L2119.46 21.5127L2120.55 26.1878L2117.17 25.4002L2113.9 22.8847L2112.06 18.9718L2106.45 15.313L2097.08 11.9082L2090.81 8.83375L2087.59 6.11505L2079.87 4.84462L2067.58 4.99707L2059.57 6.2675L2055.84 8.6813L2048.13 5.88635L2035.36 -2.85422L2018.14 -3.36238L2003.08 -3.81972L1988.02 -4.35332L1972.99 -4.93771L1957.93 -5.59831L1942.87 -6.28436L1927.84 -7.02124L1912.78 -7.83429L1897.74 -8.69817L1882.71 -9.61288L1867.68 -10.5784L1852.64 -11.6202L1837.61 -12.6873L1822.6 -13.8307L1807.6 -14.9995L1792.56 -16.2445L1793.84 -30.3717L1795.09 -44.4735L1796.37 -58.6007L1797.62 -72.7279L1798.9 -86.8551L1800.17 -100.982L1801.45 -115.135L1802.7 -129.287L1803.05 -129.262L1803.37 -129.237L1803.71 -129.186L1804.03 -129.16L1804.06 -129.338L1804.09 -129.516L1804.11 -129.694L1804.14 -129.872L1805.28 -143.034L1806.43 -156.221L1807.6 -169.382L1808.74 -182.569L1818.4 -181.782L1828.06 -180.994L1837.72 -180.232L1847.38 -179.495L1857.06 -178.783L1866.72 -178.123L1876.38 -177.437L1886.06 -176.802L1895.72 -176.192L1905.41 -175.607L1915.06 -175.048L1924.75 -174.489L1934.43 -173.981L1944.09 -173.473L1953.78 -173.016L1963.46 -172.558L1973.15 -172.126L1982.83 -171.72L1992.52 -171.364L2002.2 -171.008L2011.89 -170.678L2021.57 -170.373L2031.26 -170.094L2040.94 -169.814L2050.66 -169.586L2060.34 -169.382L2070.03 -169.179L2079.71 -169.027L2089.42 -168.874L2099.11 -168.772L2108.79 -168.671L2118.48 -168.595Z" fill="#002B00" stroke="#506650"/>
<path d="M2216.87 526.561L2219.51 529.28L2221.61 530.042L2222.22 531.135L2223.23 531.414L2224.48 531.16L2226.34 529.864L2229.14 530.169L2231.45 529.686L2236.06 530.245L2238.64 531.49L2238.88 539.164L2239.12 546.863L2239.36 554.561L2239.6 562.26L2239.75 569.451L2239.91 576.641L2240.07 583.832L2240.23 591.023L2240.39 598.213L2240.55 605.404L2240.71 612.595L2240.87 619.785L2248.06 626.569L2251.2 631.27L2252.21 633.684L2252.71 641.992L2253.46 643.974L2257.08 647.023L2257.21 649.081L2261.07 655.002L2261.04 657.822L2264.74 664.149L2266.79 665.775L2267.24 670.12L2268.41 673.397L2266.84 675.786L2267.61 679.013L2266.71 682.062L2266.28 686.102L2264.1 692.403L2262.1 695.503L2259.42 701.398L2259.79 706.251L2258.3 711.587L2258.17 713.619L2259.79 717.1L2260.59 726.781L2259.79 728.839L2256.46 734.607L2253.99 734.53L2248.77 744.059L2252.02 749.267L2251.86 751.173L2240.95 752.494L2216.34 763.547L2206.74 769.417L2207.21 767.485L2218.81 759.888L2214.66 758.821L2208.04 760.778L2205.64 760.092L2208.38 753.917L2207.4 748.505L2202.69 748.429L2199.74 752.774L2197.64 752.621L2194.87 750.792L2192.77 751.402L2194.44 761.184L2197.48 765.173L2200.03 770.28L2193.27 776.709L2186.99 782.019L2186.35 787.101L2180.02 793.758L2174.03 797.544L2159.93 806.411L2155.89 808.317L2149.5 812.433L2140.67 815.508L2132.18 820.361L2129.31 821.098L2134.74 816.981L2141.15 812.916L2135.64 813.475L2127.15 811.569L2121.96 811.442L2121.91 812.916L2117.95 815L2113.88 811.9L2112.12 809.816L2111.29 808.012L2109.57 807.58L2107.89 808.393L2113.9 821.047L2116.51 821.606L2119.38 822.876L2115.76 825.798L2111.88 828.009L2105.79 829.457L2100.68 824.807L2099.51 830.575L2098.79 836.343L2097.03 837.817L2094.24 839.9L2092.75 838.299L2092.06 836.063L2090.28 838.045L2087.67 839.519L2083.38 839.773L2080.16 840.535L2080.22 842.924L2080.94 845.337L2086.66 843.508L2084.53 849.657L2079.21 855.704L2074.9 857.076L2068.35 856.085L2066.73 856.67L2065.26 857.915L2072.74 867.595L2067.61 881.951L2064.36 887.135L2062.15 887.77L2059.78 887.871L2051.35 883.069L2046.8 879.385L2050.68 889.244L2061.78 892.293L2062.28 896.002L2062.18 899.178L2059.92 902.863L2057.76 907.766L2059.22 911.222L2060.85 919.759L2062.28 923.698L2063.75 935.589L2065.45 940.772L2075.43 959.879L2078.89 960.083L2079.42 962.141L2079.05 966.079L2071.62 967.121L2068.48 968.823L2067.85 970.348L2067.37 971.161L2066.41 971.059L2062.9 969.916L2054.94 964.402L2043.31 960.845L2027.99 959.244L2017.56 956.297L2012.05 952.054L2006.25 949.462L2000.16 948.522L1995.15 946.159L1991.24 942.347L1985.44 939.807L1977.75 938.536L1972.83 935.614L1969.58 928.754L1969.58 928.652L1966.87 917.269L1963.23 910.079L1955.96 901.058L1955.3 899.89L1955.3 898.441L1956.44 893.385L1955.78 889.701L1953.49 886.626L1953.06 883.45L1954.5 880.173L1954.74 876.183L1953.81 871.483L1949.18 866.274L1940.9 860.557L1934.01 852.401L1928.53 841.806L1923 834.386L1917.38 830.143L1913.66 825.087L1911.82 819.243L1911.37 815.889L1912.27 815L1909.03 808.444L1901.68 796.223L1897.59 787.355L1896.71 781.841L1892.02 775.083L1883.56 767.079L1879.01 761.921L1878.03 758.465L1878 758.465L1864.78 747.819L1861.16 741.416L1858.15 739.282L1854.56 739.282L1852.75 738.57L1852.75 737.173L1851.58 737.046L1849.27 738.189L1841.92 738.011L1829.55 736.487L1820.72 734.226L1815.4 731.253L1811.51 731.354L1809.06 734.53L1804.19 736.36L1796.9 736.817L1790.23 742.56L1784.13 753.587L1781.26 760.752L1781.63 764.055L1780.06 766.317L1776.55 767.562L1772.82 770.636L1768.89 775.515L1764.58 777.7L1759.89 777.166L1751.56 772.516L1739.62 763.75L1730.17 758.135L1723.17 755.721L1717.19 751.605L1712.21 745.786L1707.5 741.797L1703.06 739.612L1698.27 733.235L1693.11 722.639L1690.82 714.61L1691.65 706.454L1685.47 687.931L1682.04 679.851L1679.27 676.014L1673.58 671.212L1664.98 665.419L1653.86 654.392L1640.27 638.105L1630.53 628.119L1624.6 624.435L1619.75 618.54L1616.03 610.435L1612.12 605.124L1611.66 604.845L1605.92 601.288L1602.03 590.464L1602.35 590.489L1613.66 591.734L1624.99 592.979L1636.33 594.173L1647.66 595.342L1659 596.486L1670.33 597.603L1681.67 598.696L1693 599.763L1704.34 600.805L1715.67 601.821L1727.03 602.812L1738.39 603.778L1749.76 604.718L1761.12 605.633L1772.48 606.522L1783.84 607.36L1785.22 591.455L1786.58 575.549L1787.96 559.643L1789.32 543.763L1790.7 527.882L1792.06 512.002L1793.42 496.122L1794.78 480.266L1796.13 464.412L1797.49 448.557L1798.85 432.702L1800.2 416.847L1801.56 401.017L1802.92 385.188L1804.27 369.358L1805.63 353.528L1807.63 353.63L1816.54 354.291L1825.45 354.926L1834.37 355.536L1843.31 356.12L1852.25 356.704L1861.19 357.263L1870.13 357.797L1879.07 358.331L1888.01 358.839L1896.95 359.321L1905.89 359.804L1914.83 360.262L1923.77 360.694L1932.71 361.126L1941.65 361.532L1950.59 361.913L1950.29 368.672L1950 375.431L1949.71 382.189L1949.42 388.948L1949.12 395.707L1948.83 402.465L1948.54 409.224L1948.22 415.983L1947.93 422.741L1947.63 429.5L1947.34 436.259L1947.05 443.017L1946.76 449.776L1946.46 456.535L1946.17 463.294L1945.88 470.052L1948.72 470.764L1952.24 472.771L1960.83 480.343L1963.39 481.994L1968.12 481.257L1973.18 482.325L1974.53 482.223L1975.65 479.174L1976.16 478.564L1976.88 478.691L1981.19 481.613L1982.01 482.731L1984.46 486.771L1984.94 491.472L1986.35 492.209L1989.03 492.844L1995.61 493.327L2003.88 496.63L2007.26 497.189L2013.27 496.528L2018.81 500.771L2020.78 501.432L2022.43 500.898L2025.7 497.951L2032.7 498.459L2038.39 498.053L2038.76 501.508L2039.69 503.998L2044.35 506.742L2045.44 508.038L2045.57 512.231L2046.77 513.323L2048.69 513.78L2050.68 513.552L2053.05 512.281L2058.24 508.241L2059.81 507.25L2060.77 507.174L2061.7 507.403L2062.47 508.318L2064.12 511.494L2068.54 513.272L2071.04 515.991L2072.61 516.423L2074.34 515.94L2077.1 514.339L2079.26 514.441L2081.73 512.815L2082.72 513.196L2083.12 514.365L2082.35 517.871L2082.75 519.218L2083.73 520.793L2085.06 521.886L2086.36 522.064L2087.38 521.2L2089.29 516.804L2089.18 515.203L2091.29 514.67L2092.24 513.831L2093.49 510.655L2095.65 509.791L2096.79 509.969L2097.83 510.884L2099.91 513.806L2104.91 515.483L2106.21 515.584L2107.52 514.975L2109.78 512.586L2110.95 512.307L2111.88 512.637L2112.41 512.993L2112.57 515.839L2117.71 519.091L2121.49 520.082L2125.16 523.36L2126.22 523.741L2128.03 521.098L2131.57 520.183L2134.95 517.49L2144.74 514.035L2148.62 515.127L2152.54 515.051L2153.55 513.526L2160.49 511.316L2161.9 510.477L2163.82 511.544L2164.51 513.12L2165.41 513.78L2170.18 514.543L2172.81 514.441L2177.63 512.358L2179.49 509.74L2180.58 509.588L2184.04 510.833L2193.19 516.016L2197.85 520.234L2203.01 522.242L2205.83 524.046L2216.87 526.561ZM2192.13 783.112L2189.49 783.696L2200.86 774.778L2203.22 771.83L2206.28 771.932L2201.25 776.912L2192.13 783.112ZM2100.94 840.103L2098.98 840.332L2101.42 837.257L2105.36 835.733L2114.04 829.838L2117.55 829.457L2119.38 827.424L2120.18 827.119L2119.65 829.635L2112.71 833.167L2100.94 840.103ZM2087.48 854.357L2086.31 854.485L2088.94 849.809L2089.45 847.929L2093.73 842.034L2095.97 841.17L2096.87 843.711L2092.48 847.853L2087.48 854.357ZM2068.83 888.685L2067.1 891.962L2067.63 887.033L2072.16 875.904L2081.2 861.32L2084.95 858.906L2074.55 874.913L2068.83 888.685ZM2077.77 954.544L2076.97 957.212L2072.63 944.634L2065.77 916.253L2065.74 900.144L2066.97 894.63L2068.48 917.396L2076.15 946.413L2077.77 954.544Z" fill="#002B00" stroke="#506650"/>
<path d="M1479.66 2.66272L1478.47 9.62465L1477.24 16.5866L1476.02 23.574L1474.79 30.5359L1473.6 37.4979L1472.37 44.4853L1471.15 51.4472L1469.93 58.4092L1480.99 60.1624L1492.09 61.8902L1503.18 63.5926L1514.28 65.2695L1525.37 66.8957L1536.47 68.4964L1547.57 70.0718L1558.69 71.6217L1556.56 85.6218L1554.46 99.5966L1552.33 113.571L1550.23 127.546L1548.1 141.521L1546 155.495L1543.87 169.47L1541.76 183.445L1539.64 197.394L1537.53 211.369L1535.41 225.344L1533.3 239.319L1531.18 253.293L1529.07 267.268L1526.94 281.243L1524.84 295.217L1510.18 293.159L1495.55 291.05L1480.91 288.891L1466.28 286.68L1451.67 284.444L1437.07 282.132L1422.46 279.794L1407.85 277.406L1393.27 274.967L1378.72 272.477L1364.13 269.936L1349.58 267.344L1335.03 264.702L1320.5 262.034L1305.97 259.315L1291.44 256.52L1293.28 247.881L1295.09 239.242L1296.92 230.578L1298.73 221.939L1300.54 213.3L1302.35 204.661L1304.19 195.997L1306 187.358L1307.81 178.719L1309.64 170.08L1311.45 161.441L1313.26 152.777L1315.1 144.138L1316.91 135.499L1318.72 126.86L1320.55 118.196L1322.36 109.557L1324.17 100.918L1326.01 92.2535L1327.82 83.6146L1329.63 74.9756L1331.46 66.3113L1333.27 57.6723L1335.08 49.008L1336.92 40.3691L1338.72 31.7047L1340.56 23.0658L1342.37 14.4015L1344.18 5.73714L1346.02 -2.90178L1347.82 -11.5661L1349.66 -20.2305L1357.75 -18.6805L1365.86 -17.1306L1373.98 -15.6315L1382.09 -14.1324L1390.21 -12.6333L1398.33 -11.1596L1406.44 -9.71131L1414.56 -8.28843L1422.7 -6.86551L1430.81 -5.44264L1438.95 -4.07059L1447.1 -2.67311L1455.24 -1.32645L1463.38 0.020198L1471.52 1.34146L1479.66 2.66272Z" fill="#002B00" stroke="#506650"/>
<path d="M1792.56 -16.2442L1791.31 -2.1424L1790.04 11.9593L1788.76 26.0611L1787.51 40.1629L1786.23 54.2393L1784.98 68.3411L1783.7 82.4175L1782.43 96.5192L1768.41 95.2996L1754.41 94.0546L1740.39 92.7334L1726.37 91.3867L1712.37 90.0146L1698.38 88.5663L1684.38 87.0672L1670.38 85.5427L1656.39 83.9674L1642.42 82.3412L1628.45 80.6643L1614.48 78.9619L1600.51 77.1833L1586.57 75.3793L1572.63 73.5245L1558.69 71.6188L1547.57 70.0689L1536.47 68.4935L1525.37 66.8928L1514.28 65.2666L1503.18 63.5897L1492.09 61.8873L1480.99 60.1595L1469.93 58.4063L1471.15 51.4444L1472.37 44.4824L1473.6 37.495L1474.79 30.5331L1476.02 23.5711L1477.24 16.5837L1478.47 9.62177L1479.66 2.65984L1481.21 -6.08073L1482.72 -14.7705L1484.24 -23.4857L1485.76 -32.2262L1487.27 -40.9414L1488.82 -49.6565L1490.33 -58.3717L1491.85 -67.0868L1493.39 -75.8274L1494.91 -84.5679L1496.43 -93.2831L1497.97 -102.024L1499.49 -110.764L1501 -119.479L1502.55 -128.22L1504.06 -136.961L1505.29 -143.999L1506.54 -151.037L1507.79 -158.075L1509.01 -165.113L1518.14 -163.665L1527.26 -162.242L1536.42 -160.819L1545.54 -159.447L1554.7 -158.075L1563.85 -156.754L1573 -155.433L1582.15 -154.111L1591.31 -152.841L1600.46 -151.596L1609.64 -150.351L1618.79 -149.131L1627.97 -147.937L1637.15 -146.768L1646.3 -145.625L1655.48 -144.481L1664.66 -143.389L1673.87 -142.296L1683.05 -141.229L1692.23 -140.187L1701.43 -139.146L1710.64 -138.155L1719.82 -137.164L1729.03 -136.198L1738.23 -135.284L1747.44 -134.343L1756.64 -133.454L1765.85 -132.59L1775.06 -131.726L1784.26 -130.888L1793.5 -130.075L1802.7 -129.287L1801.45 -115.135L1800.17 -100.982L1798.9 -86.8547L1797.62 -72.7276L1796.37 -58.6003L1795.09 -44.4732L1793.84 -30.3714L1792.56 -16.2442Z" fill="#002B00" stroke="#506650"/>
<path d="M1093.43 -77.8344L1090.53 -67.5947L1087.63 -57.3551L1084.73 -47.1154L1081.83 -36.8757L1078.93 -26.636L1076.03 -16.3963L1073.13 -6.15667L1070.23 4.05757L1067.33 14.2972L1064.43 24.5115L1061.53 34.7258L1058.63 44.94L1055.73 55.1543L1052.83 65.3686L1049.93 75.5828L1047.03 85.7971L1054.96 97.3834L1062.94 108.97L1070.98 120.556L1079.09 132.117L1087.26 143.653L1095.48 155.188L1103.76 166.698L1112.09 178.208L1118.5 187.736L1124.94 197.265L1131.43 206.793L1137.95 216.296L1144.49 225.799L1151.09 235.301L1157.72 244.779L1164.37 254.256L1173.57 267.774L1182.83 281.266L1192.17 294.732L1201.57 308.199L1211.04 321.64L1220.59 335.056L1230.22 348.471L1240.6 362.776L1239.56 367.401L1240.76 374.159L1245.95 387.016L1246.29 389.913L1246.37 389.989L1246.05 392.886L1248.42 396.57L1254.7 402.287L1255.87 404.701L1255.84 404.878L1255.5 406.403L1253.29 407.902L1243.98 412.526L1238.6 416.719L1232.46 424.011L1231.71 430.77L1230.33 436.207L1228.31 440.323L1225.78 443.982L1222.72 447.184L1219.87 448.886L1217.26 449.115L1215.35 453.765L1214.12 462.861L1215.69 468.857L1220.06 471.754L1222.35 475.286L1222.56 479.453L1221.31 483.264L1218.57 486.745L1214.87 488.219L1207.92 487.431L1207.63 487.914L1201.88 487.38L1187.57 485.729L1173.23 484.026L1158.91 482.273L1144.6 480.494L1130.28 478.665L1115.97 476.785L1101.66 474.854L1087.34 472.897L1087.31 472.516L1088.48 466.393L1086.76 463.75L1083.51 464.411L1084.15 456.255L1085.8 452.723L1086.36 449.039L1085.85 439.536L1081.35 427.111L1069.22 410.138L1062.49 403.811L1057.75 396.697L1054.24 394.207L1049.43 392.606L1047.32 394.817L1042.19 391.742L1044.69 385.67L1041.58 375.633L1037.4 373.6L1026.09 371.466L1012.49 362.98L1008.88 359.041L1008.77 353.553L1003.05 347.379L995.12 340.722L989.745 340.442L983.28 338.079L974.712 332.515L969.311 330.685L958.295 328.805L954.464 327.103L951.883 322.173L948.451 319.15L950.712 314.525L951.484 310.003L953.08 306.75L953.479 298.798L956.885 292.242L956.406 289.422L954.73 286.906L948.531 282.18L948.291 278.293L950.899 273.668L950.021 269.933L945.178 265.36L941.852 257.026L936.185 251.41L935.28 244.347L932.273 239.316L931.874 235.479L926.393 220.641L919.529 208.317L919.715 202.372L921.657 194.698L926.899 191.141L930.198 187.66L931.129 183.874L931.369 180.978L929.48 175.286L917.427 168.832L910.509 153.943L912.691 144.796L911.467 134.455L913.276 128.484L914.686 121.852L918.225 121.318L920.832 122.614L919.741 125.104L919.236 129.983L921.391 134.378L924.025 136.767L925.808 140.934L927.617 142.56L929.746 143.424L929.24 140.934L928.415 139.206L928.282 134.302L927.165 127.772L924.823 123.681L924.93 117.456L923.919 115.703L923.679 113.315L927.67 111.688L932.593 111.129L938.579 112.298L954.916 117.787L958.907 117.304L961.675 118.6L963.883 119.006L959.839 116.237L957.151 116.033L954.278 114.89L948.264 113.543L946.056 112.222L943.981 109.681L942.304 109.021L935.865 110.621L933.551 109.554L928.841 104.498L926.473 103.304L921.817 104.091L918.677 112.349L917.959 118.955L915.325 118.905L913.303 115.525L909.445 112.756L906.624 109.376L902.979 103.558L900.85 101.195L896.7 103.939L897.125 102.262L899.946 98.5014L901.782 91.3362L904.496 98.2727L904.363 93.9024L902.261 88.5412L900.079 86.2544L899.254 77.4885L893.294 70.6027L889.755 61.2778L881.64 45.1433L884.434 33.9381L884.593 18.7437L889.063 11.4261L890.66 5.75993L891.298 -3.33631L890.58 -8.59592L885.046 -24.1206L878.58 -35.4528L879.352 -42.2877L880.895 -48.9448L884.859 -54.0773L888.638 -59.591L890.447 -60.8106L890.713 -59.9975L889.915 -58.8033L891.086 -58.0157L892.469 -60.5311L893.72 -61.6745L892.389 -62.2843L892.815 -63.0974L894.199 -64.5203L899.733 -71.5839L902.793 -81.6965L909.95 -93.0542L911.174 -97.1449L912.158 -106.47L911.999 -112.288L909.817 -117.065L913.143 -122.02L914.766 -127.229L914.367 -128.321L925.835 -124.815L936.93 -121.461L948.052 -118.132L959.173 -114.829L970.322 -111.577L981.47 -108.35L992.619 -105.149L1003.79 -101.973L1014.97 -98.8473L1026.14 -95.7475L1037.35 -92.673L1048.55 -89.624L1059.75 -86.6004L1070.98 -83.6275L1082.21 -80.6801L1093.43 -77.8344ZM976.708 355.713L985.621 360.998L991.235 360.998L991.794 362.599L990.836 363.615L978.437 362.726L975.218 360.312L975.457 358.203L974.792 355.941L976.708 355.713ZM955.661 353.477L953.08 352.969L949.355 351.368L951.085 350.453L953.506 350.098L953.985 350.961L955.661 353.477ZM966.544 362.522L962.978 362.421L960.637 361.023L958.083 354.747L966.863 356.297L969.923 359.524L970.242 360.286L966.544 362.522ZM1039.98 412.044L1041.36 416.668L1037.98 415.321L1034.26 414.661L1033.73 412.196L1033.43 408.868L1032.9 407.902L1030.45 407.013L1030.35 406.682L1030.45 405.133L1031.36 404.599L1038.33 409.909L1039.98 412.044ZM984.849 408.359L982.668 407.927L979.847 406.682L979.155 403.354L981.63 403.76L983.759 404.726L984.903 407.496L984.849 408.359ZM1031.78 442.712L1028.83 442.534L1025.98 440.654L1024.68 434.683L1022.82 429.804L1024.73 429.017L1026.09 433.59L1030.53 441.111L1031.78 442.712Z" fill="#4A5C4A" stroke="#4A5C4A"/>
</g>
</svg>
