<svg width="810" height="1080" viewBox="0 0 810 1080" fill="none" xmlns="http://www.w3.org/2000/svg">
<mask id="mask0_303_2491" style="mask-type:alpha" maskUnits="userSpaceOnUse" x="0" y="0" width="810" height="1080">
<rect width="810" height="1080" fill="#002B00"/>
</mask>
<g mask="url(#mask0_303_2491)">
<path d="M1414.36 347.552L1408.22 384.833L1402.07 422.114L1395.93 459.395L1389.79 496.723L1383.65 534.052L1377.5 571.381L1371.36 608.71L1365.22 646.086L1359.08 683.463L1352.88 720.839L1346.74 758.263L1340.59 795.736L1334.4 833.16L1328.25 870.632L1322.06 908.152L1315.86 945.768L1292.38 942.804L1255.84 938.12L1219.31 933.245L1182.84 928.274L1146.36 923.208L1109.89 917.998L1064.12 895.056L1018.56 871.97L973.171 848.694L928.106 825.226L883.204 801.567L838.574 777.717L794.162 753.723L749.967 729.49L756.218 724.472L766.329 709.942L766.927 709.034L781.115 710.515L788.671 707.743L794.271 701.243L796.825 694.026L796.39 686.187L791.716 679.543L782.855 674.095L779.648 662.863L782.148 645.751L786.062 637.005L791.389 636.575L797.206 633.372L803.457 627.35L808.622 620.467L812.753 612.677L815.634 602.448L817.156 589.782L829.713 576.017L840.694 568.131L859.775 559.432L864.287 556.612L864.993 553.792L865.102 553.457L862.656 548.869L849.881 538.163L845.043 531.232L845.695 525.783L845.532 525.64L844.826 520.191L834.225 496.006L831.779 483.293L833.899 474.594L834.062 473.925L844.663 437.265L842.108 423.404L842.543 415.948L846.293 407.392L847.109 401.753L845.641 396.495L847.054 387.653L849.283 376.803L846.565 369.06L846.457 365.81L850.697 358.832L856.078 355.82L864.015 354.482L872.658 355.104L882.008 357.637L888.368 362.273L891.847 368.964L895.87 372.788L900.545 373.792L907.829 370.064L915.712 360.791L917.669 360.409L928.106 315.576L937.51 274.758L967.191 280.016L996.872 285.13L1026.55 290.149L1056.29 295.119L1086.02 299.995L1115.81 304.774L1145.55 309.458L1175.34 314.047L1205.18 318.54L1235.02 322.937L1264.87 327.286L1294.71 331.492L1324.61 335.65L1354.51 339.713L1384.41 343.68L1414.36 347.552Z" fill="#002B00" stroke="#093809"/>
<path d="M937.516 274.759L928.112 315.577L917.675 360.41L915.718 360.792L907.835 370.065L900.551 373.793L895.876 372.789L891.853 368.965L888.375 362.274L882.014 357.638L872.664 355.104L864.021 354.483L856.084 355.821L850.703 358.833L846.463 365.811L846.571 369.061L849.289 376.804L847.061 387.654L845.647 396.496L847.115 401.753L846.3 407.393L842.549 415.949L842.114 423.405L844.669 437.266L834.069 473.926L833.905 474.595L812.705 447.685L793.026 422.449L773.511 397.213L754.159 371.929L734.969 346.597L715.835 321.265L696.917 295.885L678.163 270.505L664.518 252.677L650.982 234.849L637.501 216.974L624.128 199.098L610.756 181.222L597.546 163.347L584.337 145.423L571.236 127.5L554.221 105.848L537.369 84.1963L520.572 62.4968L503.883 40.7975L487.358 19.0502L470.886 -2.69699L454.578 -24.4921L438.379 -46.3348L444.304 -65.5489L450.175 -84.7629L456.1 -104.025L462.026 -123.239L467.897 -142.453L473.822 -161.715L479.747 -180.929L485.618 -200.19L491.543 -219.405L497.469 -238.666L503.394 -257.928L509.319 -277.142L515.244 -296.404L521.115 -315.666L527.041 -334.928L532.966 -354.189L565.528 -346.494L598.09 -338.942L630.652 -331.534L663.268 -324.221L695.939 -317.004L728.664 -309.93L761.388 -302.952L794.114 -296.117L826.838 -289.426L859.509 -282.83L892.288 -276.377L925.068 -270.021L957.847 -263.807L990.681 -257.689L1023.57 -251.715L1056.46 -245.836L1052.71 -229.537L1049.01 -213.239L1045.26 -196.988L1041.56 -180.69L1037.87 -164.391L1034.11 -148.141L1030.42 -131.842L1026.67 -115.591L1022.97 -99.2929L1019.27 -83.0423L1015.52 -66.7438L1011.83 -50.4931L1008.13 -34.2424L1004.38 -17.944L1000.68 -1.69331L996.987 14.5573L993.236 30.8558L989.539 47.1065L985.843 63.3572L982.092 79.6079L978.395 95.9064L974.699 112.157L970.948 128.408L967.252 144.658L963.555 160.909L959.804 177.207L956.108 193.458L952.411 209.709L948.715 225.959L944.964 242.258L941.267 258.509L937.516 274.759Z" fill="#002B00" stroke="#506650"/>
<path d="M532.96 -354.193L527.035 -334.931L521.11 -315.669L515.185 -296.407L509.259 -277.146L503.334 -257.884L497.409 -238.622L491.483 -219.36L485.558 -200.146L479.633 -180.884L473.708 -161.67L467.782 -142.456L461.857 -123.242L455.932 -104.028L450.006 -84.814L444.081 -65.6L438.156 -46.386L454.355 -24.5909L470.663 -2.79592L487.08 18.9991L503.66 40.7463L520.349 62.4458L537.146 84.1451L554.052 105.797L571.067 127.448L584.168 145.372L597.323 163.295L610.587 181.219L623.906 199.095L637.278 216.97L650.76 234.846L664.295 252.674L677.885 270.502L696.694 295.93L715.612 321.309L734.692 346.641L753.881 371.973L773.234 397.257L792.749 422.494L812.427 447.73L833.628 474.639L831.508 483.338L833.954 496.052L844.555 520.237L845.261 525.685L845.424 525.829L844.772 531.278L849.61 538.208L862.439 548.962L864.831 553.503L864.777 553.837L864.07 556.705L859.558 559.525L840.532 568.224L829.551 576.11L816.994 589.828L815.472 602.542L812.645 612.77L808.514 620.513L803.349 627.395L797.098 633.418L791.281 636.62L785.954 637.05L782.04 645.797L779.539 662.908L782.747 674.188L791.662 679.637L796.337 686.28L796.772 694.119L794.217 701.288L788.618 707.836L781.062 710.608L766.873 709.127L766.276 710.035L754.534 709.031L725.288 705.924L695.987 702.722L666.741 699.424L637.496 696.078L608.25 692.637L579.004 689.1L549.758 685.468L520.512 681.787L520.458 681.071L522.85 669.552L519.316 664.581L512.684 665.824L513.989 650.481L517.359 643.837L518.501 636.907L517.468 619.031L508.281 595.659L483.492 563.731L469.739 551.83L460.063 538.447L452.888 533.763L443.048 530.752L438.754 534.91L428.262 529.127L433.372 517.704L427.012 498.824L418.477 495L395.374 490.985L367.596 475.021L360.203 467.613L359.986 457.289L348.298 445.675L332.099 433.152L321.118 432.626L307.908 428.181L290.404 417.714L279.369 414.273L256.864 410.736L249.036 407.533L243.763 398.261L236.751 392.573L241.371 383.874L242.948 375.367L246.209 369.249L247.025 354.289L253.983 341.957L253.004 336.652L249.58 331.92L236.914 323.03L236.424 315.717L241.752 307.018L239.958 299.992L230.064 291.389L223.269 275.712L211.69 265.149L209.842 251.862L203.699 242.398L202.884 235.181L191.686 207.268L177.661 184.087L178.041 172.902L182.01 158.468L192.719 151.777L199.459 145.228L201.362 138.107L201.851 132.658L197.992 121.952L173.366 109.812L159.233 81.8031L163.69 64.5965L161.189 45.1435L164.886 33.9114L167.767 21.4367L174.997 20.433L180.324 22.8706L178.096 27.5546L177.063 36.7315L181.466 45.0001L186.848 49.4929L190.49 57.3316L194.186 60.3904L198.535 62.0155L197.502 57.3316L195.817 54.0815L195.545 44.8567L193.262 32.5732L188.478 24.878L188.696 13.168L186.63 9.87002L186.141 5.37717L194.295 2.31822L204.352 1.26671L216.583 3.46536L249.96 13.7893L258.114 12.8812L263.768 15.3188L268.28 16.0835L260.017 10.8738L254.526 10.4914L248.655 8.34058L236.37 5.80739L231.858 3.32197L227.618 -1.45763L224.193 -2.70031L211.038 0.310798L206.309 -1.69663L196.687 -11.2081L191.849 -13.4544L182.336 -11.9728L175.921 3.56097L174.453 15.9879L169.072 15.8924L164.94 9.53548L157.058 4.32565L151.296 -2.03116L143.849 -12.9765L139.5 -17.4215L131.019 -12.2595L131.889 -15.4141L137.651 -22.488L141.402 -35.9664L146.947 -22.9181L146.675 -31.139L142.381 -41.224L137.923 -45.5256L136.238 -62.0153L124.061 -74.968L116.831 -92.5092L100.251 -122.86L105.959 -143.938L106.286 -172.52L115.418 -186.285L118.68 -196.944L119.984 -214.055L118.517 -223.948L107.21 -253.152L94 -274.469L95.5765 -287.326L98.7293 -299.849L106.829 -309.503L114.548 -319.875L118.245 -322.169L118.788 -320.64L117.158 -318.393L119.549 -316.912L122.376 -321.644L124.931 -323.794L122.213 -324.942L123.083 -326.471L125.91 -329.148L137.217 -342.435L143.468 -361.458L158.091 -382.823L160.592 -390.518L162.603 -408.059L162.277 -419.004L157.819 -427.99L164.614 -437.31L167.93 -447.108L167.115 -449.164L190.544 -442.568L213.212 -436.259L235.935 -429.997L258.658 -423.784L281.435 -417.666L304.212 -411.596L326.989 -405.574L349.82 -399.599L372.652 -393.72L395.483 -387.889L418.369 -382.106L441.254 -376.37L464.14 -370.682L487.08 -365.09L510.02 -359.546L532.96 -354.193ZM294.481 461.352L312.692 471.293L324.162 471.293L325.304 474.305L323.347 476.216L298.015 474.544L291.437 470.003L291.926 466.036L290.567 461.782L294.481 461.352ZM251.482 457.146L246.209 456.19L238.599 453.179L242.132 451.458L247.079 450.789L248.057 452.414L251.482 457.146ZM273.716 474.161L266.431 473.97L261.648 471.341L256.429 459.536L274.368 462.451L280.619 468.521L281.272 469.955L273.716 474.161ZM423.75 567.316L426.577 576.015L419.673 573.481L412.063 572.239L410.976 567.603L410.378 561.341L409.291 559.525L404.289 557.852L404.072 557.231L404.289 554.315L406.138 553.312L420.38 563.301L423.75 567.316ZM311.116 560.385L306.658 559.573L300.896 557.231L299.482 550.97L304.538 551.734L308.887 553.551L311.224 558.76L311.116 560.385ZM407.007 625.006L400.973 624.671L395.157 621.134L392.493 609.902L388.688 600.725L392.602 599.244L395.374 607.847L404.452 621.994L407.007 625.006Z" fill="#093809" stroke="#093809"/>
</g>
</svg>
