<svg width="15" height="16" viewBox="0 0 15 16" fill="none" xmlns="http://www.w3.org/2000/svg">
<path d="M0.43108 14.3635C0.235818 14.5587 0.235817 14.8753 0.43108 15.0706C0.626342 15.2658 0.942924 15.2658 1.13819 15.0706L0.43108 14.3635ZM14.2197 1.28198L14.6993 1.42306C14.7499 1.25105 14.7046 1.06512 14.5804 0.935757C14.4563 0.806399 14.2723 0.753419 14.0984 0.796905L14.2197 1.28198ZM5.95799 0.834763C5.711 0.711268 5.41066 0.81138 5.28717 1.05837C5.16367 1.30536 5.26378 1.6057 5.51077 1.72919L5.95799 0.834763ZM13.8128 10.0579C13.9733 10.2826 14.2856 10.3346 14.5103 10.1741C14.735 10.0136 14.787 9.70135 14.6265 9.47664L13.8128 10.0579ZM1.13819 15.0706L14.5732 1.63553L13.8661 0.928423L0.43108 14.3635L1.13819 15.0706ZM14.0984 0.796905C13.1823 1.02592 11.6589 1.30307 10.0927 1.38368C8.50598 1.46535 6.96721 1.33937 5.95799 0.834763L5.51077 1.72919C6.7643 2.35595 8.52535 2.46568 10.1441 2.38236C11.7835 2.29798 13.3714 2.00944 14.3409 1.76705L14.0984 0.796905ZM13.74 1.14089C13.4371 2.17079 13.0753 3.83426 12.9694 5.50176C12.9164 6.33613 12.9265 7.18532 13.046 7.96376C13.1648 8.73788 13.3968 9.47545 13.8128 10.0579L14.6265 9.47664C14.3354 9.06912 14.1402 8.50149 14.0344 7.81204C13.9292 7.12692 13.9172 6.35419 13.9674 5.56515C14.0677 3.98586 14.413 2.39663 14.6993 1.42306L13.74 1.14089Z" fill="#586F58"/>
</svg>
