<svg width="40" height="36" viewBox="0 0 40 36" fill="none" xmlns="http://www.w3.org/2000/svg">
<path d="M30 15.3796V28.013C30 28.3736 29.9192 28.7308 29.7621 29.064C29.6051 29.3972 29.3749 29.6999 29.0847 29.955C28.7945 30.21 28.45 30.4123 28.0709 30.5503C27.6917 30.6883 27.2854 30.7594 26.875 30.7594H8.125C7.2962 30.7594 6.50134 30.47 5.91529 29.955C5.32924 29.4399 5 28.7414 5 28.013V11.5347C5 10.8063 5.32924 10.1078 5.91529 9.59273C6.50134 9.07768 7.2962 8.78833 8.125 8.78833H21.2094" stroke="#E3E1D7" stroke-width="1.5" stroke-linecap="round" stroke-linejoin="round"/>
<path d="M35.9331 3.65614C35.8189 3.5459 35.6805 3.45714 35.5263 3.39524C35.372 3.33334 35.205 3.29957 35.0354 3.29597C34.8659 3.29238 34.6972 3.31904 34.5397 3.37433C34.3822 3.42963 34.2391 3.51241 34.119 3.61769L33.1526 4.46289C33.0355 4.56588 32.9697 4.70554 32.9697 4.85115C32.9697 4.99677 33.0355 5.13643 33.1526 5.23942L34.0386 6.01665C34.0967 6.06792 34.1657 6.10861 34.2417 6.13638C34.3177 6.16414 34.3992 6.17843 34.4815 6.17843C34.5639 6.17843 34.6454 6.16414 34.7214 6.13638C34.7974 6.10861 34.8664 6.06792 34.9245 6.01665L35.8667 5.19274C36.3433 4.7746 36.3878 4.0935 35.9331 3.65614Z" fill="#E3E1D7"/>
<path d="M31.1985 6.1794L17.0954 18.5518C17.0099 18.6267 16.9477 18.7196 16.9149 18.8217L16.2626 20.5292C16.247 20.5756 16.2459 20.6247 16.2594 20.6716C16.2729 20.7184 16.3006 20.7612 16.3395 20.7954C16.3784 20.8295 16.427 20.8538 16.4803 20.8657C16.5336 20.8776 16.5896 20.8766 16.6423 20.8629L18.5837 20.2896C18.6998 20.2608 18.8056 20.2062 18.8907 20.131L32.9688 7.73522C33.0991 7.61953 33.1721 7.46335 33.1721 7.30061C33.1721 7.13786 33.0991 6.98168 32.9688 6.86599L32.1915 6.1794C32.0597 6.06389 31.8812 5.99902 31.695 5.99902C31.5089 5.99902 31.3303 6.06389 31.1985 6.1794Z" fill="#E3E1D7"/>
</svg>
